<svg version="1.2" xmlns="http://www.w3.org/2000/svg" viewBox="0 0 180 750" width="180" height="750"><defs><clipPath clipPathUnits="userSpaceOnUse" id="cp1"><path d="m60.13 420.68l-21.84-118.64 10.82-63.31c4.13-5.73 21.11-26.11 53.49-25.94 32.34 0.17 47.93 20.83 51.49 26.29l10.2 63.62-23.06 118.4z"/></clipPath><linearGradient id="P" gradientUnits="userSpaceOnUse"/><linearGradient id="g1" x1="28.4" y1="200.2" x2="175.3" y2="201" href="#P"><stop stop-color="#A40114"/><stop offset="1" stop-color="#fff"/></linearGradient><linearGradient id="g2" x1="28.4" y1="200.2" x2="175.3" y2="201" href="#P"><stop stop-color="#A40114"/><stop offset="1" stop-color="#fff"/></linearGradient></defs><style>.a{fill:#fff}.b{fill:#2d231b}.c{fill:#2a2a2c}.d{fill:#ccc}.e{mix-blend-mode:multiply;fill:#ccc}.f{fill:#eaeaea}.g{fill:#fdbc00}.h{fill:#a3a3a3}.i{fill:#d88b00}.j{fill:#fcb100}.k{mix-blend-mode:multiply;fill:#2d231b}.l{opacity:.5;mix-blend-mode:multiply;fill:url(#g1)}.m{opacity:.5;mix-blend-mode:multiply;fill:url(#g2)}</style><path class="a" d="m1147.8 1898.2h-2130.3v-1898.3h2130.3z"/><path class="b" d="m137.8 220.5l2.2-1351.5h5l-2.2 1351.6z"/><path class="b" d="m148.4 220.6l2.2-1351.5h5l-2.3 1351.5z"/><path class="b" d="m50.2 220.1l2.2-1351.6 5 0.1-2.2 1351.5z"/><path class="b" d="m59.6 220.1l2.3-1351.5h4.9l-2.2 1351.6z"/><path class="c" d="m5.3 716.2l-2.4-1.5 84.5-130.2 2.4 1.5z"/><path class="d" d="m100.6 431.3c19.3 0.1 34.9 16.1 34.8 35.6-0.1 19.6-15.8 35.4-35.1 35.3-19.3-0.1-34.9-16.1-34.8-35.6 0.1-19.6 15.8-35.4 35.1-35.3z"/><path class="e" d="m100.6 431.3c19.3 0.1 34.9 16.1 34.8 35.6-0.1 19.6-15.8 35.4-35.1 35.3-19.3-0.1-34.9-16.1-34.8-35.6 0.1-19.6 15.8-35.4 35.1-35.3z"/><path class="d" d="m115 480.4c0 0 1.9 11.6-3.2 28.1-5 16.4-20 21-29.3 30.4-9.4 9.4-15.5 30.9 2.8 41.8 18.3 10.8 38.9 2.1 44.2-19.4 5.3-21.4 9.3-27.6 23-29.7 13.7-2.1 11.7 6 8.4 17-3.4 11-3.8 7.9-3.9 28.2-0.1 20.3-22.9 56.3-62.1 56.1-39.1-0.2-68.4-25.3-68.2-61.6 0.2-36.3 16-49.8 37.3-64.1 21.3-14.2 21.7-27 21.7-27z"/><path class="e" d="m66.9 507.3c21.3-14.3 21.7-27.1 21.7-27.1l5.2 0.1c0 0-0.4 12.8-21.7 27-21.3 14.2-37.1 27.7-37.3 64-0.2 35.4 27.6 60.1 65.2 61.5q-1.1 0.1-2.1 0.1c-39.2-0.2-68.5-25.3-68.3-61.6 0.2-36.3 16-49.8 37.3-64z"/><path class="f" d="m77.9 580.6c-18.3-10.8-12.2-32.4-2.8-41.8 9.3-9.4 24.3-13.9 29.4-30.4 5-16.4 3.2-28.1 3.2-28.1l5.1 0.1c0 0 1.9 11.6-3.2 28-5 16.5-20 21.1-29.4 30.5-9.3 9.3-15.4 30.9 2.9 41.8 4.4 2.6 8.9 4 13.3 4.5-6 0.5-12.3-0.9-18.5-4.6z"/><path class="f" d="m149 576.7c0.1-20.3 0.5-17.2 3.9-28.1 2.7-8.9 4.4-15.9-2.1-17.1 12.4-1.5 10.5 6.4 7.2 17.1-3.3 11-3.8 7.8-3.9 28.1-0.1 20.4-22.9 56.4-62 56.2q-1.5-0.1-3-0.1c37.8-1.1 59.8-36.1 59.9-56.1z"/><path class="d" d="m51.7 416.2c0-7.5 6.1-13.6 13.6-13.6l71 0.4c7.5 0 13.5 6.2 13.4 13.8l-0.1 36.5c-0.1 7.6-6.2 13.7-13.7 13.6l-70.9-0.3c-7.5-0.1-13.6-6.3-13.5-13.8z"/><path class="g" d="m39.4 234.7c0 0 19.7-32.6 63.3-32.3 43.5 0.2 61.2 33 61.2 33l10.8 67.5-25 128.7-98.1-0.6-23.8-128.9z"/><path class="h" d="m82.1 466.2c0.4-10.3 8.8-18.3 18.9-18 10.1 0.3 18.1 8.9 17.8 19.1-0.4 10.3-8.8 18.3-18.9 18-10.1-0.3-18.1-8.9-17.8-19.1z"/><path class="d" d="m84.6 466.2c0.3-8.8 7.6-15.7 16.3-15.5 8.8 0.3 15.6 7.7 15.4 16.6-0.3 8.8-7.6 15.8-16.4 15.5-8.7-0.3-15.5-7.7-15.3-16.6z"/><path class="h" d="m86.9 466.3c0.2-7.6 6.5-13.6 14-13.3 7.5 0.2 13.4 6.6 13.1 14.2-0.2 7.6-6.5 13.6-14 13.3-7.5-0.2-13.4-6.6-13.1-14.2z"/><path class="i" d="m88.2 466.4c0.2-6.9 5.9-12.3 12.6-12.1 6.8 0.2 12.1 6 11.9 12.8-0.2 6.9-5.9 12.3-12.6 12.1-6.8-0.2-12.1-6-11.9-12.8z"/><path class="j" d="m89.9 466.4l21.1 0.7c-0.2 5.9-5.1 10.5-10.9 10.3-5.8-0.2-10.4-5.1-10.2-11z"/><path class="e" d="m51.6 431l98.1 0.6-0.1 9.4-98.1-0.6z"/><g clip-path="url(#cp1)"><path class="k" d="m181.4 154.4l-0.1 30.9-153.3 87.4 0.2-30.8z"/><path class="k" d="m181.1 214.7l-0.1 30.9-153.3 87.5 0.1-30.9z"/><path class="k" d="m180.8 275.1l-0.1 30.9-153.3 87.4 0.1-30.8z"/><path class="k" d="m180.5 335.4l-0.2 30.9-153.2 87.5 0.1-30.9z"/><path class="k" d="m180.2 395.8l-0.2 30.9-153.2 87.4 0.1-30.8z"/></g><path class="l" d="m39.4 234.7c0 0 19.7-32.6 63.3-32.3 43.5 0.2 61.2 33 61.2 33l10.8 67.5-25 128.7-98.1-0.6-23.8-128.9z"/><path class="m" d="m39.4 234.7c0 0 19.7-32.6 63.3-32.3 43.5 0.2 61.2 33 61.2 33l10.8 67.5-25 128.7-98.1-0.6-23.8-128.9z"/><path class="c" d="m157.1 719c-0.6-1.2-52.7-117.6-57.7-128.4-1.5-3.2-3.3-5.1-5.3-5.5-2.4-0.6-4.6 1.2-4.6 1.2l-1.8-2.1c0.1-0.1 3.2-2.7 7-1.9 2.9 0.6 5.4 3 7.3 7.1 5 10.8 57.1 127.3 57.6 128.4z"/></svg>