<svg xmlns="http://www.w3.org/2000/svg" xmlns:xlink="http://www.w3.org/1999/xlink" width="883.031" height="780.529" viewBox="0 0 883.031 780.529">
  <defs>
    <linearGradient id="linear-gradient" x1="0.879" y1="-0.191" x2="0.074" y2="1.466" gradientUnits="objectBoundingBox">
      <stop offset="0" stop-color="#750415"/>
      <stop offset="0.415" stop-color="#d60020"/>
      <stop offset="1" stop-color="#570015"/>
    </linearGradient>
  </defs>
  <g id="home_shap" data-name="home shap" transform="translate(-98.556 -66.459)">
    <path id="Path_767" data-name="Path 767" d="M241.552,153.139h84.557A12.609,12.609,0,0,1,338.7,165.764v63.3c17.4-15.027,30.976-27.036,44.856-38.677,43.025-36.083,85.85-72.416,129.385-107.872,25.367-20.661,28.581-20.826,53.136.016q130.314,110.611,259.7,222.324c48.709,42.033,96.7,84.91,144.879,127.551,11.6,10.269,13.506,22.349,5.744,31.524-7.928,9.369-20.1,9.371-31.96-.03-1.28-1.014-2.407-2.219-3.645-3.289Q810.21,347.772,679.612,234.95q-65-56.136-130.073-112.177c-2.821-2.431-5.87-4.6-10.018-7.826-32.8,28.355-65.306,56.479-97.837,84.574Q290.028,330.5,138.34,461.436c-13.453,11.61-26,12.414-34.392,2.539-8.623-10.151-6.008-21.1,8.04-33.594,33.418-29.716,66.382-59.97,100.5-88.859,12.83-10.865,17.853-22.223,17.336-39.12-1.368-44.754-.773-89.568-.9-134.358,0-.884.012-1.768.04-2.669a12.615,12.615,0,0,1,12.588-12.236Z" stroke="rgba(0,0,0,0)" stroke-miterlimit="10" stroke-width="1" fill-rule="evenodd" fill="url(#linear-gradient)"/>
    <path id="Subtraction_1" data-name="Subtraction 1" d="M1608.119,2159.947a35.206,35.206,0,0,1-10.161-1.254,15.743,15.743,0,0,1-6.8-3.886c-3.537-3.543-5.178-9.094-5.163-17.467.081-45.674.1-92.115.112-137.026v-.207c.029-84.745.06-172.374.525-258.559a31.6,31.6,0,0,1,3.431-13.084,33.745,33.745,0,0,1,8.121-10.949c58.532-49.316,118.236-99.232,175.975-147.505l.172-.144c53.452-44.689,108.724-90.9,163-136.578,6.74-5.672,12.472-8.314,18.039-8.314a20.868,20.868,0,0,1,9.268,2.341,49.987,49.987,0,0,1,9.954,6.8c51.759,43.525,104.525,87.612,155.553,130.248l.023.019c59.8,49.961,121.628,101.624,182.273,152.743a34.455,34.455,0,0,1,8.464,11.7,35.066,35.066,0,0,1,3.5,14.037c.665,120.267.535,242.551.409,360.809v.071q-.017,15.646-.033,31.292c-.011,10.955-.662,17.144-4.192,20.568s-9.914,4.063-21.217,4.085c-54.85.112-110.6.169-165.7.169-27.2,0-54.741-.014-81.848-.041l-13.982-.01c-33.278-.026-134.549-.105-231.131-.105-101.319,0-168.023.086-198.258.254Zm347.218-711.129c-5.249,0-10.652,2.492-17,7.841-51.073,43-103.145,86.56-153.5,128.682l-.06.05-.09.076c-54.478,45.569-110.811,92.689-166.039,139.245-6.066,5.114-10.849,15.07-10.89,22.666-.44,81.355-.468,164.074-.5,244.07v.066c-.014,42.3-.029,86.041-.1,129.121-.014,7.9,1.532,13.133,4.868,16.474a14.836,14.836,0,0,0,6.408,3.663,33.181,33.181,0,0,0,9.577,1.183h.316c28.73-.162,92.266-.244,188.843-.244,89.663,0,181.2.071,215.662.1l5.008,0,8.431.006c25.256.025,51.062.038,76.7.038,51.879,0,104.584-.053,156.652-.159,10.654-.022,16.673-.624,20-3.853s3.942-9.066,3.952-19.4q.011-10.807.023-21.614l.008-7.2v-.008c.12-111.772.243-227.35-.385-341.02-.046-8.312-5-18.973-11.281-24.269-57.127-48.175-115.423-96.9-171.8-144.03l-.025-.021,0,0c-48.106-40.212-97.851-81.792-146.646-122.843C1966.374,1451.475,1960.785,1448.818,1955.337,1448.818Zm-183.86,693.113h0Z" transform="translate(-1412.933 -1312.959)"/>
  </g>
</svg>
